<?xml version="1.0" encoding="utf-8"?>
<svg xmlns="http://www.w3.org/2000/svg" viewBox="0 0 40 40">
	<rect width="40" height="40" fill="#343A40"/>
	<path d="M32,7c0.55,0,1,0.45,1,1v24c0,0.55-0.45,1-1,1H8c-0.55,0-1-0.45-1-1V8c0-0.55,0.45-1,1-1H32 M32,5H8
		C6.34,5,5,6.34,5,8v24c0,1.66,1.34,3,3,3h24c1.66,0,3-1.34,3-3V8C35,6.34,33.66,5,32,5L32,5z" fill="#F8F9FA" />
	<line x1="10" y1="20" x2="30" y2="20" stroke="#F8F9FA" stroke-width="2" />
	<line x1="10" y1="12" x2="30" y2="12" stroke="#F8F9FA" stroke-width="2" />
	<line x1="10" y1="28" x2="24" y2="28" stroke="#F8F9FA" stroke-width="2" />
</svg>
