<svg width="50" height="50" viewBox="0 0 50 50" fill="none" xmlns="http://www.w3.org/2000/svg">
<path d="M44.4891 10.5507C44.6511 10.7249 44.7795 10.9317 44.8672 11.1595C44.9549 11.3872 45 11.6314 45 11.8779C45 12.1245 44.9549 12.3687 44.8672 12.5964C44.7795 12.8241 44.6511 13.031 44.4891 13.2051L20.1445 39.4493C19.983 39.6238 19.7911 39.7623 19.5799 39.8569C19.3686 39.9514 19.1421 40 18.9134 40C18.6847 40 18.4582 39.9514 18.2469 39.8569C18.0357 39.7623 17.8438 39.6238 17.6823 39.4493L5.50995 26.3272C5.18344 25.9752 5 25.4978 5 25C5 24.5022 5.18344 24.0248 5.50995 23.6728C5.83647 23.3208 6.27933 23.1231 6.7411 23.1231C7.20286 23.1231 7.64572 23.3208 7.97224 23.6728L18.9134 35.4714L42.0269 10.5507C42.1884 10.3762 42.3803 10.2377 42.5915 10.1431C42.8028 10.0486 43.0293 10 43.258 10C43.4867 10 43.7132 10.0486 43.9245 10.1431C44.1357 10.2377 44.3276 10.3762 44.4891 10.5507Z" fill="white"/>
</svg>
