<svg width="30" height="36" viewBox="0 0 30 36" fill="none" xmlns="http://www.w3.org/2000/svg">
<path d="M23.6224 9.60006V8.96579C23.6224 6.4104 21.2708 4.47219 18.8031 5.12521C17.3157 2.22483 13.3425 2.34495 11.956 5.16898C9.56024 4.55017 7.17352 6.39523 7.17352 8.97657V16.367C6.01553 15.9318 4.6601 16.07 3.57048 16.8868C1.86684 18.1639 1.49315 20.5977 2.72606 22.3449L9.68856 32.213C9.8603 32.4564 10.0872 32.6548 10.3503 32.7917C10.6134 32.9286 10.9051 33 11.2011 33H24.1371C25.002 33 25.7525 32.3971 25.9468 31.5461L27.6985 23.8728C27.8987 22.9953 27.9998 22.0976 28 21.1971V13.4883C28 11.1082 25.9384 9.27001 23.6224 9.60006ZM25.2141 21.197C25.2141 21.8844 25.1367 22.5722 24.984 23.2411L23.3982 30.1875H11.6796L4.9941 20.713C4.15612 19.5253 5.86597 18.2066 6.7 19.3885L8.2744 21.6197C8.79643 22.3595 9.95923 21.9881 9.95923 21.0758V8.97657C9.95923 7.47394 12.0817 7.52286 12.0817 9.01706V18C12.0817 18.5178 12.4974 18.9375 13.0102 18.9375H13.4081C13.921 18.9375 14.3367 18.5178 14.3367 18V6.92579C14.3367 5.42211 16.4591 5.47209 16.4591 6.96628V12.4831V18C16.4591 18.5178 16.8748 18.9375 17.3877 18.9375H17.7856C18.2985 18.9375 18.7142 18.5178 18.7142 18V8.9253C18.7142 7.42108 20.8365 7.47159 20.8365 8.96579V18C20.8365 18.5178 21.2522 18.9375 21.7651 18.9375H22.1631C22.6759 18.9375 23.0916 18.5178 23.0916 18V13.5288C23.0916 11.9912 25.214 12.0264 25.214 13.4883L25.2141 21.197Z" fill="#343A40"/>
</svg>
