<svg width="40" height="40" viewBox="0 0 40 40" fill="none" xmlns="http://www.w3.org/2000/svg">
<rect width="40" height="40" fill="#F8F9FA"/>
<path d="M15.005 16.75C15.005 17.7446 14.6099 18.6984 13.9067 19.4017C13.2034 20.1049 12.2496 20.5 11.255 20.5C10.2604 20.5 9.30662 20.1049 8.60335 19.4017C7.90009 18.6984 7.505 17.7446 7.505 16.75C7.505 15.7554 7.90009 14.8016 8.60335 14.0983C9.30662 13.3951 10.2604 13 11.255 13C12.2496 13 13.2034 13.3951 13.9067 14.0983C14.6099 14.8016 15.005 15.7554 15.005 16.75Z" fill="#343A40"/>
<path d="M6.5 10C5.30653 10 4.16193 10.301 3.31802 10.8368C2.47411 11.3727 2 12.0994 2 12.8571V27.1429C2 27.9006 2.47411 28.6273 3.31802 29.1632C4.16193 29.699 5.30653 30 6.5 30H33.5C34.6935 30 35.8381 29.699 36.682 29.1632C37.5259 28.6273 38 27.9006 38 27.1429V12.8571C38 12.0994 37.5259 11.3727 36.682 10.8368C35.8381 10.301 34.6935 10 33.5 10H6.5ZM33.5 11.4286C34.0967 11.4286 34.669 11.5791 35.091 11.847C35.5129 12.1149 35.75 12.4783 35.75 12.8571V22.1429L27.2518 19.3614C27.0408 19.2943 26.8019 19.271 26.5689 19.2949C26.3359 19.3187 26.1206 19.3885 25.9535 19.4943L17.606 24.7943L11.621 22.2629C11.4049 22.1715 11.1457 22.1304 10.8874 22.1466C10.629 22.1627 10.3874 22.2351 10.2035 22.3514L4.25 25.7143V12.8571C4.25 12.4783 4.48705 12.1149 4.90901 11.847C5.33097 11.5791 5.90326 11.4286 6.5 11.4286H33.5Z" fill="#343A40"/>
</svg>
