<svg width="50" height="50" viewBox="0 0 50 50" fill="#ffffff" xmlns="http://www.w3.org/2000/svg">
<path d="M10.6294 10.6294C10.8284 10.4299 11.0648 10.2716 11.3251 10.1636C11.5854 10.0556 11.8644 10 12.1462 10C12.428 10 12.707 10.0556 12.9673 10.1636C13.2276 10.2716 13.464 10.4299 13.663 10.6294L25.0006 21.9712L36.3381 10.6294C36.5373 10.4302 36.7738 10.2722 37.034 10.1644C37.2943 10.0566 37.5732 10.0011 37.8549 10.0011C38.1366 10.0011 38.4155 10.0566 38.6758 10.1644C38.9361 10.2722 39.1725 10.4302 39.3717 10.6294C39.5709 10.8286 39.7289 11.0651 39.8367 11.3253C39.9445 11.5856 40 11.8645 40 12.1462C40 12.4279 39.9445 12.7069 39.8367 12.9671C39.7289 13.2274 39.5709 13.4638 39.3717 13.663L28.0299 25.0006L39.3717 36.3381C39.5709 36.5373 39.7289 36.7738 39.8367 37.034C39.9445 37.2943 40 37.5732 40 37.8549C40 38.1366 39.9445 38.4155 39.8367 38.6758C39.7289 38.9361 39.5709 39.1725 39.3717 39.3717C39.1725 39.5709 38.9361 39.7289 38.6758 39.8367C38.4155 39.9445 38.1366 40 37.8549 40C37.5732 40 37.2943 39.9445 37.034 39.8367C36.7738 39.7289 36.5373 39.5709 36.3381 39.3717L25.0006 28.0299L13.663 39.3717C13.4638 39.5709 13.2274 39.7289 12.9671 39.8367C12.7069 39.9445 12.4279 40 12.1462 40C11.8645 40 11.5856 39.9445 11.3253 39.8367C11.0651 39.7289 10.8286 39.5709 10.6294 39.3717C10.4302 39.1725 10.2722 38.9361 10.1644 38.6758C10.0566 38.4155 10.0011 38.1366 10.0011 37.8549C10.0011 37.5732 10.0566 37.2943 10.1644 37.034C10.2722 36.7738 10.4302 36.5373 10.6294 36.3381L21.9712 25.0006L10.6294 13.663C10.4299 13.464 10.2716 13.2276 10.1636 12.9673C10.0556 12.707 10 12.428 10 12.1462C10 11.8644 10.0556 11.5854 10.1636 11.3251C10.2716 11.0648 10.4299 10.8284 10.6294 10.6294Z" fill="white"/>
</svg>
