<svg width="40" height="40" viewBox="0 0 40 40" fill="none" xmlns="http://www.w3.org/2000/svg">
<rect width="40" height="40" fill="#343A40"/>
<path fill-rule="evenodd" clip-rule="evenodd" d="M33.125 8.75C33.125 8.25272 32.9275 7.77581 32.5758 7.42417C32.2242 7.07254 31.7473 6.875 31.25 6.875H8.75C8.25272 6.875 7.77581 7.07254 7.42417 7.42417C7.07254 7.77581 6.875 8.25272 6.875 8.75V31.25C6.875 31.7473 7.07254 32.2242 7.42417 32.5758C7.77581 32.9275 8.25272 33.125 8.75 33.125H31.25C31.7473 33.125 32.2242 32.9275 32.5758 32.5758C32.9275 32.2242 33.125 31.7473 33.125 31.25V8.75ZM5 8.75C5 7.75544 5.39509 6.80161 6.09835 6.09835C6.80161 5.39509 7.75544 5 8.75 5H31.25C32.2446 5 33.1984 5.39509 33.9016 6.09835C34.6049 6.80161 35 7.75544 35 8.75V31.25C35 32.2446 34.6049 33.1984 33.9016 33.9016C33.1984 34.6049 32.2446 35 31.25 35H8.75C7.75544 35 6.80161 34.6049 6.09835 33.9016C5.39509 33.1984 5 32.2446 5 31.25V8.75ZM23.93 14.6487C24.106 14.473 24.3447 14.3743 24.5935 14.3745C24.8423 14.3747 25.0808 14.4737 25.2566 14.6497C25.4324 14.8257 25.531 15.0644 25.5308 15.3132C25.5307 15.5619 25.4317 15.8005 25.2556 15.9763L17.5756 23.6562H22.7656C23.0143 23.6562 23.2527 23.755 23.4285 23.9308C23.6044 24.1067 23.7031 24.3451 23.7031 24.5937C23.7031 24.8424 23.6044 25.0808 23.4285 25.2567C23.2527 25.4325 23.0143 25.5312 22.7656 25.5312H15.3125C15.0639 25.5312 14.8254 25.4325 14.6496 25.2567C14.4738 25.0808 14.375 24.8424 14.375 24.5937V17.1406C14.375 16.892 14.4738 16.6535 14.6496 16.4777C14.8254 16.3019 15.0639 16.2031 15.3125 16.2031C15.5611 16.2031 15.7996 16.3019 15.9754 16.4777C16.1512 16.6535 16.25 16.892 16.25 17.1406V22.3306L23.93 14.6487V14.6487Z" fill="#F8F9FA"/>
</svg>
