<svg width="30" height="30" viewBox="0 0 30 30" fill="none" xmlns="http://www.w3.org/2000/svg">
<path fill-rule="evenodd" clip-rule="evenodd" d="M28.125 3.75C28.125 3.25272 27.9275 2.77581 27.5758 2.42417C27.2242 2.07254 26.7473 1.875 26.25 1.875H3.75C3.25272 1.875 2.77581 2.07254 2.42417 2.42417C2.07254 2.77581 1.875 3.25272 1.875 3.75V26.25C1.875 26.7473 2.07254 27.2242 2.42417 27.5758C2.77581 27.9275 3.25272 28.125 3.75 28.125H26.25C26.7473 28.125 27.2242 27.9275 27.5758 27.5758C27.9275 27.2242 28.125 26.7473 28.125 26.25V3.75ZM0 3.75C0 2.75544 0.395088 1.80161 1.09835 1.09835C1.80161 0.395088 2.75544 0 3.75 0L26.25 0C27.2446 0 28.1984 0.395088 28.9016 1.09835C29.6049 1.80161 30 2.75544 30 3.75V26.25C30 27.2446 29.6049 28.1984 28.9016 28.9016C28.1984 29.6049 27.2446 30 26.25 30H3.75C2.75544 30 1.80161 29.6049 1.09835 28.9016C0.395088 28.1984 0 27.2446 0 26.25V3.75ZM18.93 9.64875C19.106 9.47296 19.3447 9.3743 19.5935 9.37448C19.8423 9.37465 20.0808 9.47365 20.2566 9.64969C20.4324 9.82573 20.531 10.0644 20.5308 10.3132C20.5307 10.5619 20.4317 10.8005 20.2556 10.9763L12.5756 18.6562H17.7656C18.0143 18.6562 18.2527 18.755 18.4285 18.9308C18.6044 19.1067 18.7031 19.3451 18.7031 19.5937C18.7031 19.8424 18.6044 20.0808 18.4285 20.2567C18.2527 20.4325 18.0143 20.5312 17.7656 20.5312H10.3125C10.0639 20.5312 9.8254 20.4325 9.64959 20.2567C9.47377 20.0808 9.375 19.8424 9.375 19.5937V12.1406C9.375 11.892 9.47377 11.6535 9.64959 11.4777C9.8254 11.3019 10.0639 11.2031 10.3125 11.2031C10.5611 11.2031 10.7996 11.3019 10.9754 11.4777C11.1512 11.6535 11.25 11.892 11.25 12.1406V17.3306L18.93 9.64875V9.64875Z" fill="#343A40"/>
</svg>
