<?xml version="1.0" encoding="utf-8"?>
<!-- Svg Vector Icons : http://www.onlinewebfonts.com/icon -->
<!DOCTYPE svg PUBLIC "-//W3C//DTD SVG 1.1//EN" "http://www.w3.org/Graphics/SVG/1.1/DTD/svg11.dtd">
<svg version="1.1" xmlns="http://www.w3.org/2000/svg" xmlns:xlink="http://www.w3.org/1999/xlink" x="40px" y="40px" viewBox="0 0 1000 1000" enable-background="new 0 0 40 40" xml:space="preserve">
<metadata> Svg Vector Icons : http://www.onlinewebfonts.com/icon </metadata>
<g><g fill="#343A40" transform="translate(0.000000,511.000000) scale(0.100000,-0.100000)"><path d="M4553.6,4999.2C3387,4877.4,2370.4,4402.7,1554.8,3593.1C779.7,2828.2,309,1892.8,136.5,778.9c-48.7-324.6-48.7-1014.5,0-1339.1c142-911,484.9-1710.4,1024.6-2384.1c793.3-988.1,1889-1613,3169.3-1809.9c322.6-48.7,1016.5-48.7,1339.1,0C6749-4587.8,7678.3-4129.2,8427-3394.7C9216.2-2617.6,9691-1680.3,9863.5-560.2c48.7,322.6,48.7,1016.5,0,1339.1c-166.4,1079.4-622.9,2006.7-1359.4,2757.4c-771,783.2-1712.5,1264.1-2814.2,1432.5C5436.2,5007.3,4795.1,5023.5,4553.6,4999.2z M3234.8,2838.3c113.6-58.8,121.7-101.4,121.7-624.9v-474.8l99.4-62.9c255.6-166.4,389.6-549.9,298.3-860.3c-42.6-150.1-172.5-340.9-296.2-434.2l-101.4-77.1v-1377.7c0-1509.6,4.1-1460.9-121.7-1525.8c-79.1-40.6-367.2-40.6-446.4,0c-125.8,64.9-121.7,16.2-121.7,1527.8V306.1l-99.4,62.9c-255.7,166.4-389.6,549.9-298.3,860.3c42.6,150.1,172.5,340.9,296.2,434.2l101.4,77.1v474.8c0,517.4,8.1,562,117.7,620.9C2859.4,2878.9,3155.7,2878.9,3234.8,2838.3z M5243.5,2838.3c121.7-62.9,121.7-60.9,121.7-1073.3V843.8l99.4-75.1c123.8-89.3,255.6-280,298.3-432.2c91.3-310.4-42.6-693.9-298.3-860.3l-99.4-62.9v-921.2c0-1010.4,0-1008.4-121.7-1071.3c-79.1-40.6-367.2-40.6-446.4,0c-121.7,62.9-121.7,60.9-121.7,1069.3v921.2l-101.5,77.1c-123.8,93.3-253.6,284.1-296.2,434.2c-91.3,310.4,42.6,693.9,298.3,860.3l99.4,62.9V1767c0,1006.4,0,1006.4,117.7,1069.3C4868.1,2878.9,5164.4,2878.9,5243.5,2838.3z M7211.6,2838.3c127.8-66.9,121.7,36.5,121.7-2057.4v-1905.2l69-42.6c105.5-67,253.6-235.4,306.4-353c69-152.2,101.4-379.4,73-495.1c-60.9-241.4-221.1-434.2-444.3-539.7c-123.8-58.8-154.2-64.9-328.7-64.9c-174.5,0-204.9,6.1-328.7,64.9c-172.5,81.2-306.4,215.1-387.5,387.5c-58.9,123.8-64.9,152.2-64.9,338.8c0,176.5,8.1,217.1,54.8,318.6c75.1,160.3,146.1,249.6,261.7,324.6l99.4,62.9V782.9c0,2083.8-6.1,1988.4,117.7,2053.3C6836.2,2878.9,7132.5,2878.9,7211.6,2838.3z"/></g></g>
</svg>