<svg width="40" height="40" viewBox="0 0 40 40" fill="none" xmlns="http://www.w3.org/2000/svg">

  <path
    d="M20.005 13.75C20.005 14.7446 19.6099 15.6984 18.9067 16.4017C18.2034 17.1049 17.2496 17.5 16.255 17.5C15.2604 17.5 14.3066 17.1049 13.6034 16.4017C12.9001 15.6984 12.505 14.7446 12.505 13.75C12.505 12.7554 12.9001 11.8016 13.6034 11.0983C14.3066 10.3951 15.2604 10 16.255 10C17.2496 10 18.2034 10.3951 18.9067 11.0983C19.6099 11.8016 20.005 12.7554 20.005 13.75Z"
    fill="#343A40" />
  <path
    d="M28.6667 2H11.3333C10.1841 2 9.08186 2.47411 8.2692 3.31802C7.45655 4.16193 7 5.30653 7 6.5V33.5C7 34.6935 7.45655 35.8381 8.2692 36.682C9.08186 37.5259 10.1841 38 11.3333 38H28.6667C29.8159 38 30.9181 37.5259 31.7308 36.682C32.5435 35.8381 33 34.6935 33 33.5V6.5C33 5.30653 32.5435 4.16193 31.7308 3.31802C30.9181 2.47411 29.8159 2 28.6667 2V2ZM9.16667 6.5C9.16667 5.90326 9.39494 5.33097 9.80127 4.90901C10.2076 4.48705 10.7587 4.25 11.3333 4.25H28.6667C29.2413 4.25 29.7924 4.48705 30.1987 4.90901C30.6051 5.33097 30.8333 5.90326 30.8333 6.5V24.5L26.3202 19.8132C26.2089 19.6979 26.0748 19.6091 25.9272 19.5529C25.7795 19.4968 25.6219 19.4747 25.4652 19.4882C25.3085 19.5017 25.1566 19.5504 25.0199 19.631C24.8831 19.7116 24.7649 19.8222 24.6735 19.955L20 26.75L15.3092 23.825C15.1018 23.696 14.8588 23.6428 14.6189 23.6738C14.379 23.7048 14.156 23.8182 13.9853 23.996L9.16667 29V6.5Z"
    fill="#343A40" />
</svg>