<svg width="40" height="40" viewBox="0 0 40 40" fill="none" xmlns="http://www.w3.org/2000/svg">
<!-- <rect width="40" height="40" fill="#F8F9FA"/> -->
<path d="M15.005 13.75C15.005 14.7446 14.6099 15.6984 13.9067 16.4017C13.2034 17.1049 12.2496 17.5 11.255 17.5C10.2604 17.5 9.30662 17.1049 8.60335 16.4017C7.90009 15.6984 7.505 14.7446 7.505 13.75C7.505 12.7554 7.90009 11.8016 8.60335 11.0983C9.30662 10.3951 10.2604 10 11.255 10C12.2496 10 13.2034 10.3951 13.9067 11.0983C14.6099 11.8016 15.005 12.7554 15.005 13.75Z" fill="#343A40"/>
<path d="M6.5 5C5.30653 5 4.16193 5.45153 3.31802 6.25526C2.47411 7.05898 2 8.14907 2 9.28571V30.7143C2 31.8509 2.47411 32.941 3.31802 33.7447C4.16193 34.5485 5.30653 35 6.5 35H33.5C34.6935 35 35.8381 34.5485 36.682 33.7447C37.5259 32.941 38 31.8509 38 30.7143V9.28571C38 8.14907 37.5259 7.05898 36.682 6.25526C35.8381 5.45153 34.6935 5 33.5 5H6.5ZM33.5 7.14286C34.0967 7.14286 34.669 7.36862 35.091 7.77049C35.5129 8.17235 35.75 8.71739 35.75 9.28571V23.2143L27.2518 19.0421C27.0408 18.9415 26.8019 18.9066 26.5689 18.9423C26.3359 18.9781 26.1206 19.0827 25.9535 19.2414L17.606 27.1914L11.621 23.3943C11.4049 23.2573 11.1457 23.1956 10.8874 23.2199C10.629 23.2441 10.3874 23.3526 10.2035 23.5271L4.25 28.5714V9.28571C4.25 8.71739 4.48705 8.17235 4.90901 7.77049C5.33097 7.36862 5.90326 7.14286 6.5 7.14286H33.5Z" fill="#343A40"/>
</svg>
