<?xml version="1.0" encoding="utf-8"?>
<!-- Svg Vector Icons : http://www.onlinewebfonts.com/icon -->
<!DOCTYPE svg PUBLIC "-//W3C//DTD SVG 1.1//EN" "http://www.w3.org/Graphics/SVG/1.1/DTD/svg11.dtd">
<svg version="1.1" xmlns="http://www.w3.org/2000/svg" xmlns:xlink="http://www.w3.org/1999/xlink" x="0px" y="0px" viewBox="0 0 1000 1000" fill="#F8F9FA" xml:space="preserve">
 
<g><g transform="translate(0.000000,511.000000) scale(0.100000,-0.100000)"><path d="M4907.5,4985.4c-97.2-46-112.5-127.9-112.5-621.4c0-514,12.8-580.4,130.4-629c94.6-38.3,209.7,5.1,250.6,94.6c38.3,84.4,38.3,981.9,0,1066.3c-28.1,61.4-122.8,122.7-184.1,117.6C4974,5013.6,4935.6,5000.8,4907.5,4985.4z"/><path d="M2506.4,4312.9c-35.8-33.2-63.9-86.9-63.9-117.6c0-53.7,414.2-805.5,508.8-920.5c104.8-130.4,335-43.5,335,127.9c0,76.7-434.7,859.2-516.5,930.8C2695.6,4397.3,2580.6,4389.7,2506.4,4312.9z"/><path d="M7229.3,4333.4c-84.4-74.2-516.5-851.5-516.5-928.2c0-112.5,79.3-189.2,191.8-189.2c120.2,0,130.4,10.2,421.9,524.2c199.4,345.2,232.7,419.4,217.3,483.3C7513.1,4364.1,7336.7,4425.5,7229.3,4333.4z"/><path d="M4577.6,3415.4C3217.3,3221.1,2120.3,2252,1772.5,937.7c-76.7-294.1-81.8-327.3-81.8-818.3c0-455.1,5.1-539.5,58.8-754.4C2066.6-1910.9,2984.6-2828.8,4258-3143.4c329.9-81.8,1099.5-89.5,1419.2-12.8c1025.4,240.4,1825.7,851.5,2280.9,1743.9c140.6,276.2,230.1,521.6,304.3,841.2c76.7,319.6,69,1089.3-12.8,1419.2c-240.3,971.7-843.8,1754.1-1690.2,2196.5C6030,3320.8,5692.5,3405.2,5089,3418C4851.2,3423.1,4621.1,3420.5,4577.6,3415.4z M5562.1,2980.7C6735.8,2758.3,7687,1781.5,7889,592.5c43.5-248,43.5-728.8,0-971.7c-204.6-1199.2-1150.7-2163.3-2347.4-2393.4c-102.3-20.4-222.5-35.8-263.4-35.8h-74.2v2915v2915h74.2C5319.2,3021.6,5447,3003.7,5562.1,2980.7z"/><path d="M793.2,2599.7c-76.7-74.2-84.4-189.2-17.9-263.4c69.1-81.8,851.5-516.5,928.2-516.5c171.3,0,258.3,230.1,127.9,335c-115.1,94.6-866.8,508.8-920.5,508.8C880.1,2663.7,826.4,2635.5,793.2,2599.7z"/><path d="M8605,2420.7c-232.7-135.5-437.2-258.3-452.6-276.2c-17.9-17.9-38.3-69-48.6-112.5c-12.8-66.5-2.6-94.6,48.6-145.7c40.9-38.4,94.6-66.5,138.1-66.5c84.4,0,918,467.9,953.8,537c66.5,122.7-2.5,271.1-140.6,294.1C9039.6,2663.7,8952.7,2622.7,8605,2420.7z"/><path d="M200,280.5c-81.8-40.9-122.7-156-86.9-248c48.6-117.6,115.1-130.4,629-130.4s580.4,12.8,629,130.4c38.4,94.6-5.1,209.7-94.6,250.6C1194.7,318.9,279.2,318.9,200,280.5z"/><path d="M8714.9,280.5c-81.8-40.9-122.7-156-86.9-248C8676.5-85.2,8743-97.9,9257-97.9s580.4,12.8,629,130.4c38.3,94.6-5.1,209.7-94.6,250.6C9709.6,318.9,8794.2,318.9,8714.9,280.5z"/><path d="M1202.3-1849.5c-222.5-132.9-421.9-260.8-439.8-283.8c-79.3-107.4-12.8-276.2,120.2-304.3c63.9-15.3,138.1,17.9,483.3,217.3c225,127.9,434.7,253.2,465.4,278.7c81.8,66.5,81.8,219.9,0,286.4C1726.5-1570.8,1634.5-1598.9,1202.3-1849.5z"/><path d="M8167.7-1655.2c-69-56.3-81.8-212.2-20.5-271.1c17.9-20.4,225-145.7,457.7-281.3c350.3-204.6,434.7-242.9,498.6-230.1c138.1,23,207.1,171.3,140.6,294c-35.8,66.5-869.4,537-951.2,537C8257.2-1606.6,8200.9-1627,8167.7-1655.2z"/><path d="M3007.6-3020.6c-38.4-17.9-156-191.8-314.5-465.4c-207.1-358-250.6-447.5-237.8-511.4c23-138.1,171.3-207.1,294.1-140.6c69,35.8,537,869.4,537,953.8c0,81.8-102.3,196.9-171.3,196.9C3089.4-2987.4,3040.8-3002.7,3007.6-3020.6z"/><path d="M6822.7-3013c-66.5-25.6-109.9-99.7-109.9-181.5c0-76.7,475.6-910.3,537-943.6c122.7-66.5,271,2.5,294.1,140.6c12.8,63.9-25.6,148.3-230.1,498.6c-135.5,232.7-258.3,434.7-276.2,452.6C6994-3002.7,6886.6-2984.8,6822.7-3013z"/><path d="M4907.5-3529.5c-97.2-46.1-112.5-127.9-112.5-621.4c0-513.9,12.8-580.4,130.4-629c94.6-38.4,209.7,5.1,250.6,94.6c38.3,84.4,38.3,981.9,0,1066.3c-28.1,61.4-122.8,122.7-184.1,117.6C4974-3501.4,4935.6-3514.1,4907.5-3529.5z"/></g></g>
</svg>