<?xml version="1.0" encoding="iso-8859-1"?>
<!-- Generator: Adobe Illustrator 19.0.0, SVG Export Plug-In . SVG Version: 6.00 Build 0)  -->
<svg version="1.1" id="Layer_1" xmlns="http://www.w3.org/2000/svg" xmlns:xlink="http://www.w3.org/1999/xlink" x="0px" y="0px"
	 viewBox="0 0 512 512" style="enable-background:new 0 0 512 512;" xml:space="preserve">
<circle style="fill:#353640;" cx="256.003" cy="256.003" r="173.835"/>
<path style="fill:#FFFFFF;" d="M256,116.958c76.667,0,139.042,62.374,139.042,139.042S332.669,395.043,256,395.043L256,116.958
	L256,116.958z"/>
<g>
	<path style="fill:#353640;" d="M256,57.536c-4.804,0-8.698-3.893-8.698-8.698V8.698C247.302,3.893,251.196,0,256,0
		s8.698,3.893,8.698,8.698v40.14C264.698,53.643,260.804,57.536,256,57.536z"/>
	<path style="fill:#353640;" d="M402.486,118.213c-2.226,0-4.452-0.849-6.15-2.547c-3.397-3.398-3.397-8.905,0-12.301l28.384-28.384
		c3.397-3.396,8.905-3.396,12.3,0c3.397,3.398,3.397,8.905,0,12.301l-28.384,28.384
		C406.938,117.363,404.711,118.213,402.486,118.213z"/>
	<path style="fill:#353640;" d="M503.301,264.698h-40.14c-4.804,0-8.698-3.893-8.698-8.698c0-4.805,3.894-8.698,8.698-8.698h40.14
		c4.804,0,8.698,3.893,8.698,8.698C511.999,260.804,508.105,264.698,503.301,264.698z"/>
	<path style="fill:#353640;" d="M430.869,439.567c-2.226,0-4.452-0.849-6.15-2.547l-28.384-28.384
		c-3.397-3.398-3.397-8.905,0-12.301c3.397-3.396,8.905-3.396,12.3,0l28.384,28.384c3.397,3.398,3.397,8.905,0,12.301
		C435.32,438.717,433.095,439.567,430.869,439.567z"/>
	<path style="fill:#353640;" d="M256,512c-4.804,0-8.698-3.893-8.698-8.698v-40.14c0-4.805,3.894-8.698,8.698-8.698
		s8.698,3.893,8.698,8.698v40.14C264.698,508.106,260.804,512,256,512z"/>
	<path style="fill:#353640;" d="M81.132,439.567c-2.226,0-4.452-0.849-6.15-2.547c-3.397-3.398-3.397-8.905,0-12.301l28.384-28.384
		c3.397-3.396,8.905-3.396,12.3,0c3.397,3.398,3.397,8.905,0,12.301L87.282,437.02C85.584,438.717,83.358,439.567,81.132,439.567z"
		/>
	<path style="fill:#353640;" d="M48.839,264.698H8.699c-4.804,0-8.698-3.893-8.698-8.698c0-4.805,3.894-8.698,8.698-8.698h40.14
		c4.804,0,8.698,3.893,8.698,8.698C57.537,260.804,53.642,264.698,48.839,264.698z"/>
	<path style="fill:#353640;" d="M109.516,118.213c-2.226,0-4.452-0.849-6.15-2.547L74.982,87.283c-3.397-3.398-3.397-8.905,0-12.301
		c3.397-3.396,8.905-3.396,12.3,0l28.384,28.384c3.397,3.398,3.397,8.905,0,12.301C113.968,117.363,111.741,118.213,109.516,118.213
		z"/>
</g>
<g>
</g>
<g>
</g>
<g>
</g>
<g>
</g>
<g>
</g>
<g>
</g>
<g>
</g>
<g>
</g>
<g>
</g>
<g>
</g>
<g>
</g>
<g>
</g>
<g>
</g>
<g>
</g>
<g>
</g>
</svg>
