<?xml version="1.0" encoding="utf-8"?>
<svg xmlns="http://www.w3.org/2000/svg" viewBox="0 0 40 40">
	<path d="M31.87,7.39c0.55,0,1,0.45,1,1v24c0,0.55-0.45,1-1,1h-24c-0.55,0-1-0.45-1-1v-24c0-0.55,0.45-1,1-1H31.87 M31.87,5.39h-24c-1.66,0-3,1.34-3,3v24c0,1.66,1.34,3,3,3h24c1.66,0,3-1.34,3-3v-24C34.87,6.73,33.53,5.39,31.87,5.39L31.87,5.39z" fill="#343A40" />
	<polygon points="20,18 15,16 10,20 10,23 30,23 30,16 25,14 " fill="#343A40" />
	<circle cx="15" cy="12" r="2.5" fill="#343A40" />
	<line x1="10" y1="26" x2="30" y2="26" stroke="#343A40" stroke-width="2" />
	<line x1="10" y1="30" x2="25" y2="30" stroke="#343A40" stroke-width="2" />
</svg>
