<?xml version="1.0" encoding="utf-8"?>
<svg xmlns="http://www.w3.org/2000/svg" viewBox="0 0 40 40">
	<path d="M32,7c0.55,0,1,0.45,1,1v24c0,0.55-0.45,1-1,1H8c-0.55,0-1-0.45-1-1V8c0-0.55,0.45-1,1-1H32 M32,5H8
		C6.34,5,5,6.34,5,8v24c0,1.66,1.34,3,3,3h24c1.66,0,3-1.34,3-3V8C35,6.34,33.66,5,32,5L32,5z" fill="#343A40"/>
	<path d="M26.63,13v-0.53c0-2.13-1.81-3.74-3.71-3.2c-1.14-2.42-4.2-2.32-5.27,0.04c-1.84-0.52-3.68,1.02-3.68,3.17
	v6.16c-0.89-0.36-1.93-0.25-2.77,0.43c-1.31,1.06-1.6,3.09-0.65,4.55l5.36,8.22c0.13,0.2,0.31,0.37,0.51,0.48s0.43,0.17,0.65,0.17
	h9.95c0.67,0,1.24-0.5,1.39-1.21l1.35-6.39c0.15-0.73,0.23-1.48,0.23-2.23v-6.42C30,14.26,28.41,12.73,26.63,13z M27.86,22.66
	c0,0.57-0.06,1.15-0.18,1.7l-1.22,5.79h-9.01l-5.14-7.9c-0.64-0.99,0.67-2.09,1.31-1.1l1.21,1.86c0.4,0.62,1.3,0.31,1.3-0.45V12.48
	c0-1.25,1.63-1.21,1.63,0.03V20c0,0.43,0.32,0.78,0.71,0.78h0.31c0.39,0,0.71-0.35,0.71-0.78v-9.23c0-1.25,1.63-1.21,1.63,0.03v4.6
	V20c0,0.43,0.32,0.78,0.71,0.78h0.31c0.39,0,0.71-0.35,0.71-0.78v-7.56c0-1.25,1.63-1.21,1.63,0.03V20c0,0.43,0.32,0.78,0.71,0.78
	h0.31c0.39,0,0.71-0.35,0.71-0.78v-3.73c0-1.28,1.63-1.25,1.63-0.03L27.86,22.66z" fill="#343A40" />
</svg>
