<svg width="40" height="40" viewBox="0 0 40 40" fill="none" xmlns="http://www.w3.org/2000/svg">
<rect width="40" height="40" fill="#343A40"/>
<path d="M28.6224 11.6001V10.9658C28.6224 8.4104 26.2708 6.47219 23.8031 7.12521C22.3157 4.22483 18.3425 4.34495 16.956 7.16898C14.5602 6.55017 12.1735 8.39523 12.1735 10.9766V18.367C11.0155 17.9318 9.6601 18.07 8.57048 18.8868C6.86684 20.1639 6.49315 22.5977 7.72606 24.3449L14.6886 34.213C14.8603 34.4564 15.0872 34.6548 15.3503 34.7917C15.6134 34.9286 15.9051 35 16.2011 35H29.1371C30.002 35 30.7525 34.3971 30.9468 33.5461L32.6985 25.8728C32.8987 24.9953 32.9998 24.0976 33 23.1971V15.4883C33 13.1082 30.9384 11.27 28.6224 11.6001ZM30.2141 23.197C30.2141 23.8844 30.1367 24.5722 29.984 25.2411L28.3982 32.1875H16.6796L9.9941 22.713C9.15612 21.5253 10.866 20.2066 11.7 21.3885L13.2744 23.6197C13.7964 24.3595 14.9592 23.9881 14.9592 23.0758V10.9766C14.9592 9.47394 17.0817 9.52286 17.0817 11.0171V20C17.0817 20.5178 17.4974 20.9375 18.0102 20.9375H18.4081C18.921 20.9375 19.3367 20.5178 19.3367 20V8.92579C19.3367 7.42211 21.4591 7.47209 21.4591 8.96628V14.4831V20C21.4591 20.5178 21.8748 20.9375 22.3877 20.9375H22.7856C23.2985 20.9375 23.7142 20.5178 23.7142 20V10.9253C23.7142 9.42108 25.8365 9.47159 25.8365 10.9658V20C25.8365 20.5178 26.2522 20.9375 26.7651 20.9375H27.1631C27.6759 20.9375 28.0916 20.5178 28.0916 20V15.5288C28.0916 13.9912 30.214 14.0264 30.214 15.4883L30.2141 23.197Z" fill="#F8F9FA"/>
</svg>
