<svg width="50" height="50" viewBox="0 0 50 50" fill="none" xmlns="http://www.w3.org/2000/svg">
  <g clip-path="url(#clip0_55_498)">
    <path
      d="M25.0008 0C24.4508 0 23.9071 0.01875 23.3665 0.053125L23.5665 3.17188C24.5217 3.11014 25.4799 3.11014 26.4352 3.17188L26.6352 0.053125C26.0911 0.0178476 25.5461 0.000130037 25.0008 0V0ZM20.1258 0.475C19.0446 0.690625 17.9883 0.975 16.9633 1.31875L17.9665 4.28125C18.8633 3.975 19.7852 3.72813 20.729 3.54063L20.1258 0.478125V0.475ZM33.0383 1.32187C32.0049 0.971511 30.9495 0.68965 29.879 0.478125L29.2727 3.54063C30.2165 3.72813 31.1383 3.97813 32.0352 4.28125L33.0383 1.32187ZM38.8915 4.2125C37.9845 3.60545 37.0387 3.05845 36.0602 2.575L34.6758 5.375C35.5352 5.8 36.3633 6.28125 37.154 6.80937L38.8915 4.2125ZM13.9383 2.575C12.9571 3.05938 12.0133 3.60625 11.1102 4.2125L12.8477 6.80625C13.6419 6.27611 14.4697 5.79803 15.3258 5.375L13.9383 2.575ZM8.51645 6.20312C7.6977 6.92188 6.92271 7.69687 6.20396 8.51562L8.55396 10.5781C9.18521 9.85938 9.86021 9.18437 10.579 8.55313L8.51645 6.20312ZM43.7977 8.51562C43.0778 7.6955 42.3053 6.92304 41.4852 6.20312L39.4227 8.55313C40.1415 9.18437 40.8196 9.85938 41.4477 10.5781L43.7977 8.51562ZM47.4258 13.9375C46.9424 12.96 46.3954 12.0153 45.7883 11.1094L43.1946 12.8469C43.7227 13.6375 44.2008 14.4656 44.6258 15.325L47.4258 13.9406V13.9375ZM4.21333 11.1094C3.60708 12.0125 3.05708 12.9563 2.57583 13.9406L5.37583 15.325C5.80083 14.4656 6.28208 13.6375 6.8102 12.8469L4.21333 11.1094ZM1.32271 16.9625C0.972332 17.9959 0.690471 19.0514 0.478955 20.1219L3.54146 20.7281C3.72896 19.7844 3.97896 18.8625 4.28208 17.9656L1.32271 16.9625ZM49.5258 20.125C49.3145 19.0534 49.0326 17.997 48.6821 16.9625L45.7196 17.9656C46.0258 18.8625 46.2727 19.7844 46.4602 20.7281L49.5227 20.1219L49.5258 20.125ZM0.0539551 23.3656C-0.0163574 24.4541 -0.0163574 25.5459 0.0539551 26.6344L3.1727 26.4344C3.11097 25.4791 3.11097 24.5209 3.1727 23.5656L0.0539551 23.3656ZM50.0008 25C50.0007 24.4548 49.983 23.9097 49.9477 23.3656L46.829 23.5656C46.8908 24.5209 46.8908 25.4791 46.829 26.4344L49.9477 26.6344C49.983 26.0903 50.0007 25.5452 50.0008 25ZM0.47583 29.875C0.691455 30.9563 0.97583 32.0125 1.31958 33.0375L4.28208 32.0344C3.97472 31.1308 3.72731 30.208 3.54146 29.2719L0.478955 29.8781L0.47583 29.875ZM48.679 33.0375C49.029 32.0125 49.3102 30.9562 49.5227 29.8781L46.4602 29.2719C46.2727 30.2156 46.0227 31.1375 45.7196 32.0344L48.679 33.0375ZM2.57583 36.0625C3.0594 37.0399 3.6064 37.9846 4.21333 38.8906L6.80708 37.1531C6.27641 36.3592 5.7983 35.5314 5.37583 34.675L2.57583 36.0594V36.0625ZM45.7883 38.8906C46.3946 37.9875 46.9446 37.0437 47.4258 36.0594L44.6258 34.675C44.2008 35.5344 43.7196 36.3625 43.1915 37.1531L45.7883 38.8906ZM6.20396 41.4844C6.92271 42.3031 7.6977 43.0781 8.51645 43.7969L10.579 41.4469C9.86073 40.8165 9.1843 40.1401 8.55396 39.4219L6.20396 41.4844ZM41.4852 43.7969C42.304 43.0781 43.079 42.3031 43.7977 41.4844L41.4477 39.4219C40.8196 40.1406 40.1415 40.8187 39.4227 41.4469L41.4852 43.7969ZM36.0633 47.425C37.0446 46.9406 37.9883 46.3938 38.8915 45.7875L37.154 43.1937C36.3597 43.7239 35.5319 44.202 34.6758 44.625L36.0602 47.425H36.0633ZM11.1102 45.7875C12.0133 46.3938 12.9571 46.9437 13.9415 47.425L15.3258 44.625C14.4693 44.2015 13.6415 43.7224 12.8477 43.1906L11.1102 45.7875ZM16.9633 48.6781C17.9883 49.0281 19.0446 49.3094 20.1227 49.5219L20.729 46.4594C19.7929 46.2734 18.87 46.026 17.9665 45.7188L16.9633 48.6781ZM29.8758 49.525C30.9474 49.3136 32.0039 49.0318 33.0383 48.6813L32.0352 45.7188C31.1316 46.026 30.2088 46.2734 29.2727 46.4594L29.879 49.5219L29.8758 49.525ZM23.3665 49.9469C24.4549 50.0173 25.5468 50.0173 26.6352 49.9469L26.4352 46.8281C25.48 46.8899 24.5217 46.8899 23.5665 46.8281L23.3665 49.9469ZM26.5633 14.0625C26.5633 13.6481 26.3987 13.2507 26.1057 12.9576C25.8127 12.6646 25.4152 12.5 25.0008 12.5C24.5864 12.5 24.189 12.6646 23.896 12.9576C23.603 13.2507 23.4383 13.6481 23.4383 14.0625V23.4375H14.0633C13.6489 23.4375 13.2515 23.6021 12.9585 23.8951C12.6655 24.1882 12.5008 24.5856 12.5008 25C12.5008 25.4144 12.6655 25.8118 12.9585 26.1049C13.2515 26.3979 13.6489 26.5625 14.0633 26.5625H23.4383V35.9375C23.4383 36.3519 23.603 36.7493 23.896 37.0424C24.189 37.3354 24.5864 37.5 25.0008 37.5C25.4152 37.5 25.8127 37.3354 26.1057 37.0424C26.3987 36.7493 26.5633 36.3519 26.5633 35.9375V26.5625H35.9383C36.3527 26.5625 36.7502 26.3979 37.0432 26.1049C37.3362 25.8118 37.5008 25.4144 37.5008 25C37.5008 24.5856 37.3362 24.1882 37.0432 23.8951C36.7502 23.6021 36.3527 23.4375 35.9383 23.4375H26.5633V14.0625Z"
      fill="black" />
  </g>
  <defs>
    <clipPath id="clip0_55_498">
      <rect width="50.0008" height="50" fill="white" />
    </clipPath>
  </defs>
</svg>